<svg xmlns="http://www.w3.org/2000/svg" xmlns:xlink="http://www.w3.org/1999/xlink" viewBox="0 0 92.42 178.23"><defs><style>.cls-1,.cls-3{fill:none;}.cls-2{clip-path:url(#clip-path);}.cls-3{stroke:#fff;stroke-miterlimit:10;stroke-width:4px;}</style><clipPath id="clip-path" transform="translate(-37.54)"><rect class="cls-1" width="192.62" height="291.46"/></clipPath></defs><title>artefacts_decouverts_icones</title><g id="Calque_2" data-name="Calque 2"><g id="Calque_1-2" data-name="Calque 1"><g class="cls-2"><line class="cls-3" x1="40.76" y1="69.77" x2="40.76" y2="173.04"/><polyline class="cls-3" points="48.52 111.75 70.3 111.88 70.03 81.04"/><polyline class="cls-3" points="40.76 141.14 77.42 141.25 86.03 124.04"/><polyline class="cls-3" points="7.76 55.07 42.62 55.07 42.62 21.76"/><line class="cls-3" x1="26.4" y1="55.07" x2="26.3" y2="69.29"/><polyline class="cls-3" points="6.32 113.84 12.11 113.69 12.11 164.04"/><line class="cls-3" x1="19.28" y1="165.75" x2="25.84" y2="165.75"/><polyline class="cls-3" points="6.57 84.5 20.32 84.5 20.32 92.16"/><polyline class="cls-3" points="74.43 163.03 57.61 163.06 57.61 150.86"/><polyline class="cls-3" points="63.03 58.04 53.61 58.06 53.61 45.86"/><line class="cls-3" x1="25.64" y1="17.18" x2="25.64" y2="32.24"/><path class="cls-3" d="M84.33,2s-23.41.58-39.29,54c0,0-1.18,94.09-4.9,104.25,0,0,35.48,11.15,44.19,15.74,0,0,50.73-19.74,42.79-28.63,0,0-6-45.1-13.48-53.86S84.33,2,84.33,2Z" transform="translate(-37.54)"/></g></g></g></svg>