<svg xmlns="http://www.w3.org/2000/svg" viewBox="0 0 486.3 78.18"><defs><style>.cls-1,.cls-5{fill:#fff;}.cls-2,.cls-3,.cls-4{fill:none;}.cls-2,.cls-3,.cls-4,.cls-5{stroke:#fff;}.cls-2,.cls-3,.cls-5{stroke-miterlimit:10;}.cls-2{stroke-width:0.5px;}.cls-4{stroke-width:2px;}</style></defs><title>bouton_menu</title><g id="Calque_2" data-name="Calque 2"><g id="Calque_1-2" data-name="Calque 1"><path class="cls-1" d="M8.23,60.58a10.28,10.28,0,0,0-2.29,1,5.63,5.63,0,0,0-1,.73,3.61,3.61,0,0,0-.74.91l-.45.91,0-1c0-1-.12-2.06-.12-3.09V16.86c0-1,0-2.06.07-3.09l0-.73.49.51a13.85,13.85,0,0,0,2.4,2,6.28,6.28,0,0,0,2.91,1.16,6,6,0,0,1-3.08-.88A14.9,14.9,0,0,1,3.76,14l.53-.23c.07,1,.08,2.06.06,3.09V60.05c0,1-.08,2.06-.12,3.09L3.75,63a3.68,3.68,0,0,1,.94-1,6.36,6.36,0,0,1,1.11-.68A9.7,9.7,0,0,1,8.23,60.58Z"/><path class="cls-2" d="M10.55,19.77,7.31,17.9a.08.08,0,0,0-.12.08v3.73a.08.08,0,0,0,.12.08l3.24-1.87A.09.09,0,0,0,10.55,19.77Z"/><path class="cls-2" d="M10.55,58.09,7.31,56.22a.08.08,0,0,0-.12.08V60a.08.08,0,0,0,.12.08l3.24-1.87A.09.09,0,0,0,10.55,58.09Z"/><rect class="cls-2" x="5.68" y="63.99" width="5.96" height="5.96" rx="0.4" ry="0.4" transform="translate(51.91 15.11) rotate(47.2)"/><rect class="cls-1" x="8.08" y="66.39" width="1.16" height="1.16" rx="0.17" ry="0.17" transform="translate(51.91 15.11) rotate(47.2)"/><rect class="cls-2" x="5.68" y="6.97" width="5.96" height="5.96" rx="0.4" ry="0.4" transform="translate(10.07 -3.17) rotate(47.2)"/><rect class="cls-1" x="8.08" y="9.37" width="1.16" height="1.16" rx="0.17" ry="0.17" transform="translate(10.07 -3.17) rotate(47.2)"/><path class="cls-1" d="M34,60.58a9.7,9.7,0,0,1,2.43.78,6.36,6.36,0,0,1,1.11.68,3.68,3.68,0,0,1,.94,1l-.49.12c0-1-.12-2.06-.12-3.09V16.86c0-1,0-2.06.06-3.09l.53.23a14.9,14.9,0,0,1-2.67,1.87,6,6,0,0,1-3.08.88,6.28,6.28,0,0,0,2.91-1.16,13.85,13.85,0,0,0,2.4-2l.49-.51,0,.73c.07,1,.08,2.06.07,3.09V60.05c0,1-.08,2.06-.12,3.09l0,1L38,63.25a3.61,3.61,0,0,0-.74-.91,5.63,5.63,0,0,0-1-.73A10.28,10.28,0,0,0,34,60.58Z"/><path class="cls-2" d="M31.68,19.77l3.24-1.87A.08.08,0,0,1,35,18v3.73a.08.08,0,0,1-.12.08l-3.24-1.87A.09.09,0,0,1,31.68,19.77Z"/><path class="cls-2" d="M31.68,58.09l3.24-1.87a.08.08,0,0,1,.12.08V60a.08.08,0,0,1-.12.08l-3.24-1.87A.09.09,0,0,1,31.68,58.09Z"/><rect class="cls-1" x="13.77" y="13.13" width="1.32" height="1.32" transform="translate(21.64 32.4) rotate(-154.89)"/><rect class="cls-1" x="10.94" y="15.3" width="1.32" height="1.32" transform="translate(18.37 34.5) rotate(-164.06)"/><rect class="cls-2" x="30.59" y="63.99" width="5.96" height="5.96" rx="0.4" ry="0.4" transform="translate(105.51 87.83) rotate(132.8)"/><rect class="cls-1" x="32.99" y="66.39" width="1.16" height="1.16" rx="0.17" ry="0.17" transform="translate(99.2 30.85) rotate(87.8)"/><rect class="cls-2" x="30.59" y="6.97" width="5.96" height="5.96" rx="0.4" ry="0.4" transform="translate(63.68 -7.93) rotate(132.8)"/><rect class="cls-1" x="32.99" y="9.37" width="1.16" height="1.16" rx="0.17" ry="0.17" transform="matrix(-0.68, 0.73, -0.73, -0.68, 63.68, -7.93)"/><path class="cls-1" d="M27.79,11.22a17.7,17.7,0,0,1,.67-5.6l.24.32c-2.57.11-5.13.08-7.7.12V5.32h.25v.75c-2.56,0-5.13,0-7.7-.12l.25-.32a17.69,17.69,0,0,1,.66,5.6,23.6,23.6,0,0,0-1.15-5.46l-.1-.31.34,0c2.57-.1,5.14-.07,7.7-.12v.75H21V5.32c2.57,0,5.13,0,7.7.12H29l-.1.31A24.13,24.13,0,0,0,27.79,11.22Z"/><path class="cls-1" d="M27.79,66.54A24.13,24.13,0,0,0,28.94,72l.1.31-.34,0c-2.57.1-5.13.07-7.7.11V71.7h.25v.75c-2.56,0-5.13,0-7.7-.12l-.34,0,.1-.31a23.6,23.6,0,0,0,1.15-5.46,17.69,17.69,0,0,1-.66,5.6l-.25-.32c2.57-.11,5.14-.08,7.7-.12v.75H21V71.7c2.57,0,5.13,0,7.7.12l-.24.32A17.7,17.7,0,0,1,27.79,66.54Z"/><rect class="cls-1" x="27.17" y="13.13" width="1.32" height="1.32" transform="translate(-3.22 13.12) rotate(-25.11)"/><rect class="cls-1" x="30" y="15.3" width="1.32" height="1.32" transform="matrix(0.96, -0.27, 0.27, 0.96, -3.2, 9.04)"/><rect class="cls-1" x="13.77" y="62.9" width="1.32" height="1.32" transform="translate(54.47 114.98) rotate(154.89)"/><rect class="cls-1" x="10.94" y="60.73" width="1.32" height="1.32" transform="translate(39.62 117.23) rotate(164.06)"/><rect class="cls-1" x="27.17" y="62.9" width="1.32" height="1.32" transform="translate(29.61 -5.8) rotate(25.11)"/><rect class="cls-1" x="30" y="60.73" width="1.32" height="1.32" transform="translate(18.04 -6.06) rotate(15.94)"/><path class="cls-3" d="M14.55,37l-3.18-4a1,1,0,0,0-1.86.65V42.8a1,1,0,0,0,1.79.62l3.25-4.09A1.85,1.85,0,0,0,14.55,37Z"/><path class="cls-3" d="M27.45,37l3.18-4a1,1,0,0,1,1.86.65V42.8a1,1,0,0,1-1.79.62l-3.25-4.09A1.85,1.85,0,0,1,27.45,37Z"/><polygon class="cls-4" points="26.93 71.3 21.27 76.78 15.62 71.3 21.27 65.81 26.93 71.3"/><polygon class="cls-4" points="26.93 6.88 21.27 12.37 15.62 6.88 21.27 1.39 26.93 6.88"/><path class="cls-4" d="M21.15,12.7,41.3,28.36V49.59L21.15,65.24,1,49.59V28.36Z"/><path class="cls-1" d="M452.23,60.58a10.28,10.28,0,0,0-2.29,1,5.63,5.63,0,0,0-1,.73,3.61,3.61,0,0,0-.74.91l-.45.91,0-1c0-1-.12-2.06-.12-3.09V16.86c0-1,0-2.06.07-3.09l0-.73.49.51a13.85,13.85,0,0,0,2.4,2,6.18,6.18,0,0,0,2.91,1.16,6,6,0,0,1-3.08-.88A14.9,14.9,0,0,1,447.76,14l.53-.23c.07,1,.08,2.06.06,3.09V60.05c0,1-.08,2.06-.12,3.09l-.49-.12a3.68,3.68,0,0,1,.94-1,6.36,6.36,0,0,1,1.11-.68A9.7,9.7,0,0,1,452.23,60.58Z"/><path class="cls-2" d="M454.55,19.77l-3.24-1.87a.08.08,0,0,0-.12.08v3.73a.08.08,0,0,0,.12.08l3.24-1.87A.09.09,0,0,0,454.55,19.77Z"/><path class="cls-2" d="M454.55,58.09l-3.24-1.87a.08.08,0,0,0-.12.08V60a.08.08,0,0,0,.12.08l3.24-1.87A.09.09,0,0,0,454.55,58.09Z"/><rect class="cls-2" x="449.68" y="63.99" width="5.96" height="5.96" rx="0.4" ry="0.4" transform="translate(194.26 -310.68) rotate(47.2)"/><rect class="cls-1" x="452.08" y="66.39" width="1.16" height="1.16" rx="0.17" ry="0.17" transform="translate(194.26 -310.68) rotate(47.2)"/><rect class="cls-2" x="449.68" y="6.97" width="5.96" height="5.96" rx="0.4" ry="0.4" transform="translate(152.42 -328.96) rotate(47.2)"/><rect class="cls-1" x="452.08" y="9.37" width="1.16" height="1.16" rx="0.17" ry="0.17" transform="translate(152.42 -328.96) rotate(47.2)"/><path class="cls-1" d="M478,60.58a9.7,9.7,0,0,1,2.43.78,6.36,6.36,0,0,1,1.11.68,3.68,3.68,0,0,1,.94,1l-.49.12c0-1-.12-2.06-.12-3.09V16.86c0-1,0-2.06.06-3.09l.53.23a14.9,14.9,0,0,1-2.67,1.87,6,6,0,0,1-3.08.88,6.18,6.18,0,0,0,2.91-1.16,13.85,13.85,0,0,0,2.4-2l.49-.51,0,.73c.07,1,.08,2.06.07,3.09V60.05c0,1-.08,2.06-.12,3.09l0,1-.45-.91a3.61,3.61,0,0,0-.74-.91,5.63,5.63,0,0,0-1-.73A10.28,10.28,0,0,0,478,60.58Z"/><path class="cls-2" d="M475.68,19.77l3.24-1.87A.08.08,0,0,1,479,18v3.73a.08.08,0,0,1-.12.08l-3.24-1.87A.09.09,0,0,1,475.68,19.77Z"/><path class="cls-2" d="M475.68,58.09l3.24-1.87a.08.08,0,0,1,.12.08V60a.08.08,0,0,1-.12.08l-3.24-1.87A.09.09,0,0,1,475.68,58.09Z"/><rect class="cls-1" x="457.77" y="13.13" width="1.32" height="1.32" transform="translate(867.67 220.85) rotate(-154.89)"/><rect class="cls-1" x="454.94" y="15.3" width="1.32" height="1.32" transform="translate(889.29 156.47) rotate(-164.06)"/><rect class="cls-2" x="474.59" y="63.99" width="5.96" height="5.96" rx="0.4" ry="0.4" transform="translate(851.17 -237.96) rotate(132.8)"/><rect class="cls-1" x="476.99" y="66.39" width="1.16" height="1.16" rx="0.17" ry="0.17" transform="translate(526.13 -412.83) rotate(87.8)"/><rect class="cls-2" x="474.59" y="6.97" width="5.96" height="5.96" rx="0.4" ry="0.4" transform="translate(809.33 -333.72) rotate(132.8)"/><rect class="cls-1" x="476.99" y="9.37" width="1.16" height="1.16" rx="0.17" ry="0.17" transform="translate(809.33 -333.72) rotate(132.8)"/><path class="cls-1" d="M471.79,11.22a17.7,17.7,0,0,1,.67-5.6l.24.32c-2.57.11-5.13.08-7.7.12V5.32h.25v.75c-2.56,0-5.13,0-7.7-.12l.25-.32a17.69,17.69,0,0,1,.66,5.6,23.6,23.6,0,0,0-1.15-5.46l-.1-.31.34,0c2.57-.1,5.14-.07,7.7-.12v.75H465V5.32c2.57,0,5.13,0,7.7.12H473l-.1.31A24.13,24.13,0,0,0,471.79,11.22Z"/><path class="cls-1" d="M471.79,66.54A24.13,24.13,0,0,0,472.94,72l.1.31-.34,0c-2.57.1-5.13.07-7.7.11V71.7h.25v.75c-2.56,0-5.13,0-7.7-.12l-.34,0,.1-.31a23.6,23.6,0,0,0,1.15-5.46,17.69,17.69,0,0,1-.66,5.6l-.25-.32c2.57-.11,5.14-.08,7.7-.12v.75H465V71.7c2.57,0,5.13,0,7.7.12l-.24.32A17.7,17.7,0,0,1,471.79,66.54Z"/><rect class="cls-1" x="471.17" y="13.13" width="1.32" height="1.32" transform="translate(38.75 201.57) rotate(-25.11)"/><rect class="cls-1" x="474" y="15.3" width="1.32" height="1.32" transform="translate(13.88 131.01) rotate(-15.94)"/><rect class="cls-1" x="457.77" y="62.9" width="1.32" height="1.32" transform="translate(900.5 -73.47) rotate(154.89)"/><rect class="cls-1" x="454.94" y="60.73" width="1.32" height="1.32" transform="translate(910.54 -4.74) rotate(164.06)"/><rect class="cls-1" x="471.17" y="62.9" width="1.32" height="1.32" transform="translate(71.58 -194.25) rotate(25.11)"/><rect class="cls-1" x="474" y="60.73" width="1.32" height="1.32" transform="translate(35.13 -128.03) rotate(15.94)"/><path class="cls-3" d="M458.55,37l-3.18-4a1,1,0,0,0-1.86.65V42.8a1,1,0,0,0,1.79.62l3.25-4.09A1.85,1.85,0,0,0,458.55,37Z"/><path class="cls-3" d="M471.45,37l3.18-4a1,1,0,0,1,1.86.65V42.8a1,1,0,0,1-1.79.62l-3.25-4.09A1.85,1.85,0,0,1,471.45,37Z"/><polygon class="cls-4" points="470.93 71.3 465.27 76.78 459.62 71.3 465.27 65.81 470.93 71.3"/><polygon class="cls-4" points="470.93 6.88 465.27 12.37 459.62 6.88 465.27 1.39 470.93 6.88"/><path class="cls-4" d="M465.15,12.7,485.3,28.36V49.59L465.15,65.24,445,49.59V28.36Z"/><line class="cls-5" x1="35.5" y1="1.79" x2="450.5" y2="1.79"/><line class="cls-5" x1="35.5" y1="75.79" x2="450.5" y2="75.79"/></g></g></svg>