<svg xmlns="http://www.w3.org/2000/svg" viewBox="0 0 525.5 109.72"><defs><style>.cls-1,.cls-5{fill:#fff;}.cls-2,.cls-3,.cls-4{fill:none;}.cls-2,.cls-3,.cls-4,.cls-5{stroke:#fff;}.cls-2,.cls-3,.cls-5{stroke-miterlimit:10;}.cls-2{stroke-width:0.5px;}.cls-4,.cls-5{stroke-width:2px;}</style></defs><title>bouton_chargement</title><g id="Calque_2" data-name="Calque 2"><g id="Calque_1-2" data-name="Calque 1"><path class="cls-1" d="M11.16,85.56a16.61,16.61,0,0,0-1.67.6A11.65,11.65,0,0,0,7.91,87a8.53,8.53,0,0,0-1.42,1,5.14,5.14,0,0,0-1.07,1.29L5,90.15l0-1c0-1.45-.12-2.89-.12-4.34V24.12c0-1.44,0-2.89.07-4.33l0-.73.49.51a20.72,20.72,0,0,0,3.42,2.84A8.59,8.59,0,0,0,13,24a8.7,8.7,0,0,1-4.3-1.29A21.39,21.39,0,0,1,5,20l.53-.22c.06,1.44.07,2.89.06,4.33V84.81c0,1.45-.09,2.89-.12,4.34L5,89a5.22,5.22,0,0,1,1.28-1.36,9.24,9.24,0,0,1,1.54-1A11.47,11.47,0,0,1,9.44,86,16.75,16.75,0,0,1,11.16,85.56Z"/><path class="cls-2" d="M14.47,28.25,9.82,25.56a.09.09,0,0,0-.13.08V31a.09.09,0,0,0,.13.08l4.65-2.69A.08.08,0,0,0,14.47,28.25Z"/><path class="cls-2" d="M14.47,82.09,9.82,79.41a.08.08,0,0,0-.13.07v5.37a.09.09,0,0,0,.13.07l4.65-2.68A.09.09,0,0,0,14.47,82.09Z"/><rect class="cls-2" x="7.58" y="90.34" width="8.37" height="8.37" rx="0.4" ry="0.4" transform="translate(73.13 21.67) rotate(47.2)"/><rect class="cls-1" x="10.95" y="93.72" width="1.62" height="1.62" rx="0.17" ry="0.17" transform="translate(73.13 21.67) rotate(47.2)"/><rect class="cls-2" x="7.58" y="10.22" width="8.37" height="8.37" rx="0.4" ry="0.4" transform="translate(14.34 -4.01) rotate(47.2)"/><rect class="cls-1" x="10.95" y="13.6" width="1.62" height="1.62" rx="0.17" ry="0.17" transform="translate(14.34 -4.01) rotate(47.2)"/><path class="cls-1" d="M47.36,85.56a17.65,17.65,0,0,1,1.73.46,11.47,11.47,0,0,1,1.67.68,9.16,9.16,0,0,1,1.53,1A5.25,5.25,0,0,1,53.58,89l-.5.12c0-1.45-.12-2.89-.12-4.34V24.12c0-1.44,0-2.89.06-4.33l.53.22a21.39,21.39,0,0,1-3.69,2.67A8.7,8.7,0,0,1,45.57,24a8.67,8.67,0,0,0,4.14-1.56,20.25,20.25,0,0,0,3.41-2.84l.5-.51,0,.73c.07,1.44.08,2.89.07,4.33V84.81c0,1.45-.09,2.89-.13,4.34l0,1-.47-.89A5.14,5.14,0,0,0,52,88a9,9,0,0,0-1.42-1A11.65,11.65,0,0,0,49,86.16,16.79,16.79,0,0,0,47.36,85.56Z"/><path class="cls-2" d="M44.06,28.25l4.65-2.69a.09.09,0,0,1,.13.08V31a.09.09,0,0,1-.13.08l-4.65-2.69A.08.08,0,0,1,44.06,28.25Z"/><path class="cls-2" d="M44.06,82.09l4.65-2.68a.08.08,0,0,1,.13.07v5.37a.09.09,0,0,1-.13.07l-4.65-2.68A.09.09,0,0,1,44.06,82.09Z"/><rect class="cls-1" x="18.94" y="18.89" width="1.85" height="1.85" transform="translate(29.45 46.19) rotate(-154.89)"/><rect class="cls-1" x="14.97" y="21.94" width="1.85" height="1.85" transform="translate(24.9 49.21) rotate(-164.06)"/><rect class="cls-2" x="42.58" y="90.34" width="8.37" height="8.37" rx="0.4" ry="0.4" transform="translate(147.9 124.44) rotate(132.8)"/><rect class="cls-1" x="45.95" y="93.72" width="1.62" height="1.62" rx="0.17" ry="0.17" transform="translate(139.43 44.17) rotate(87.8)"/><rect class="cls-2" x="42.58" y="10.22" width="8.37" height="8.37" rx="0.4" ry="0.4" transform="translate(89.11 -10.12) rotate(132.8)"/><rect class="cls-1" x="45.95" y="13.6" width="1.62" height="1.62" rx="0.17" ry="0.17" transform="translate(89.11 -10.12) rotate(132.8)"/><path class="cls-1" d="M38.64,16.2a26.05,26.05,0,0,1,1-7.84l.24.32c-3.61.11-7.21.08-10.82.12V8.06h.36V8.8c-3.61,0-7.21,0-10.82-.12l.24-.32a26.05,26.05,0,0,1,1,7.84,32.06,32.06,0,0,0-1.53-7.7l-.09-.32h.34c3.61-.1,7.21-.07,10.82-.11V8.8H29.1V8.06c3.61,0,7.21,0,10.82.12h.34l-.09.31A32.06,32.06,0,0,0,38.64,16.2Z"/><path class="cls-1" d="M38.64,93.93a32,32,0,0,0,1.53,7.7l.09.32h-.34c-3.61.1-7.21.08-10.82.12v-.75h.36v.75c-3.61,0-7.21,0-10.82-.12H18.3l.09-.32a32,32,0,0,0,1.53-7.7,26.05,26.05,0,0,1-1,7.84l-.24-.32c3.61-.11,7.21-.08,10.82-.12v.75H29.1v-.75c3.61,0,7.21,0,10.82.12l-.24.32A26.05,26.05,0,0,1,38.64,93.93Z"/><rect class="cls-1" x="37.78" y="18.89" width="1.85" height="1.85" transform="translate(-4.75 18.3) rotate(-25.11)"/><rect class="cls-1" x="41.75" y="21.94" width="1.85" height="1.85" transform="translate(-4.64 12.6) rotate(-15.94)"/><rect class="cls-1" x="18.94" y="88.82" width="1.85" height="1.85" transform="translate(75.95 162.57) rotate(154.89)"/><rect class="cls-1" x="14.97" y="85.77" width="1.85" height="1.85" transform="translate(55 165.69) rotate(164.06)"/><rect class="cls-1" x="37.78" y="88.82" width="1.85" height="1.85" transform="translate(41.75 -7.94) rotate(25.11)"/><rect class="cls-1" x="41.75" y="85.77" width="1.85" height="1.85" transform="translate(25.46 -8.39) rotate(15.94)"/><path class="cls-3" d="M20.41,52.92l-5.59-7a1,1,0,0,0-1.86.65V61.73a1,1,0,0,0,1.79.63l5.66-7.12A1.86,1.86,0,0,0,20.41,52.92Z"/><path class="cls-3" d="M37.79,52.92l5.59-7a1,1,0,0,1,1.87.65V61.73a1,1,0,0,1-1.8.63l-5.66-7.12A1.89,1.89,0,0,1,37.79,52.92Z"/><polygon class="cls-4" points="37.43 100.61 29.49 108.33 21.55 100.61 29.49 92.9 37.43 100.61"/><polygon class="cls-4" points="37.43 10.11 29.49 17.82 21.55 10.11 29.49 2.39 37.43 10.11"/><path class="cls-4" d="M29.32,18.28l28.31,22V70.11l-28.31,22L1,70.11V40.28Z"/><path class="cls-1" d="M478,84.56a16.79,16.79,0,0,0-1.68.6,12.26,12.26,0,0,0-1.58.79,8.88,8.88,0,0,0-1.41,1,5.14,5.14,0,0,0-1.07,1.29l-.47.89,0-1c0-1.45-.12-2.89-.12-4.34V23.12c0-1.44,0-2.89.06-4.33l0-.73.49.51a20.32,20.32,0,0,0,3.42,2.84A8.59,8.59,0,0,0,479.83,23a8.7,8.7,0,0,1-4.3-1.29,21.46,21.46,0,0,1-3.7-2.67l.53-.22c.07,1.44.08,2.89.07,4.33V83.81c0,1.45-.09,2.89-.13,4.34l-.49-.12a5.22,5.22,0,0,1,1.28-1.36,8.85,8.85,0,0,1,1.54-1A11.35,11.35,0,0,1,476.3,85,17.65,17.65,0,0,1,478,84.56Z"/><path class="cls-2" d="M481.33,27.25l-4.65-2.69a.08.08,0,0,0-.12.08V30a.08.08,0,0,0,.12.08l4.65-2.69A.08.08,0,0,0,481.33,27.25Z"/><path class="cls-2" d="M481.33,81.09l-4.65-2.68a.08.08,0,0,0-.12.07v5.37a.08.08,0,0,0,.12.07l4.65-2.68A.08.08,0,0,0,481.33,81.09Z"/><rect class="cls-2" x="474.44" y="89.34" width="8.37" height="8.37" rx="0.4" ry="0.4" transform="translate(222.07 -321.22) rotate(47.2)"/><rect class="cls-1" x="477.82" y="92.72" width="1.62" height="1.62" rx="0.17" ry="0.17" transform="translate(222.07 -321.22) rotate(47.2)"/><rect class="cls-2" x="474.44" y="9.22" width="8.37" height="8.37" rx="0.4" ry="0.4" transform="translate(163.28 -346.9) rotate(47.2)"/><rect class="cls-1" x="477.82" y="12.6" width="1.62" height="1.62" rx="0.17" ry="0.17" transform="translate(163.28 -346.9) rotate(47.2)"/><path class="cls-1" d="M514.23,84.56A17.65,17.65,0,0,1,516,85a11.35,11.35,0,0,1,1.66.68,8.85,8.85,0,0,1,1.54,1A5.22,5.22,0,0,1,520.44,88l-.49.12c0-1.45-.12-2.89-.12-4.34V23.12c0-1.44,0-2.89.07-4.33l.53.22a21.46,21.46,0,0,1-3.7,2.67A8.63,8.63,0,0,1,512.44,23a8.59,8.59,0,0,0,4.13-1.56A19.93,19.93,0,0,0,520,18.57l.5-.51,0,.73c.07,1.44.08,2.89.06,4.33V83.81c0,1.45-.08,2.89-.12,4.34l0,1-.46-.89A5.19,5.19,0,0,0,518.9,87a8.88,8.88,0,0,0-1.41-1,11.65,11.65,0,0,0-1.58-.79A16.79,16.79,0,0,0,514.23,84.56Z"/><path class="cls-2" d="M510.93,27.25l4.65-2.69a.08.08,0,0,1,.12.08V30a.08.08,0,0,1-.12.08l-4.65-2.69A.08.08,0,0,1,510.93,27.25Z"/><path class="cls-2" d="M510.93,81.09l4.65-2.68a.08.08,0,0,1,.12.07v5.37a.08.08,0,0,1-.12.07l-4.65-2.68A.08.08,0,0,1,510.93,81.09Z"/><rect class="cls-1" x="485.81" y="17.89" width="1.85" height="1.85" transform="translate(919.47 242.44) rotate(-154.89)"/><rect class="cls-1" x="481.84" y="20.94" width="1.85" height="1.85" transform="translate(940.95 175.5) rotate(-164.06)"/><rect class="cls-2" x="509.45" y="89.34" width="8.37" height="8.37" rx="0.4" ry="0.4" transform="translate(931.23 -219.81) rotate(132.8)"/><rect class="cls-1" x="512.82" y="92.72" width="1.62" height="1.62" rx="0.17" ry="0.17" transform="translate(587.35 -423.32) rotate(87.8)"/><rect class="cls-2" x="509.45" y="9.22" width="8.37" height="8.37" rx="0.4" ry="0.4" transform="translate(872.44 -354.37) rotate(132.8)"/><rect class="cls-1" x="512.82" y="12.6" width="1.62" height="1.62" rx="0.17" ry="0.17" transform="translate(872.44 -354.37) rotate(132.8)"/><path class="cls-1" d="M505.51,15.2a26.05,26.05,0,0,1,1-7.84l.24.32c-3.61.11-7.21.08-10.82.12V7.06h.36V7.8c-3.61,0-7.22,0-10.82-.12l.24-.32a26.05,26.05,0,0,1,1,7.84,32.06,32.06,0,0,0-1.53-7.7l-.1-.32h.35c3.6-.1,7.21-.07,10.82-.11V7.8H496V7.06c3.61,0,7.21,0,10.82.12h.34l-.1.31A32,32,0,0,0,505.51,15.2Z"/><path class="cls-1" d="M505.51,92.93a32,32,0,0,0,1.52,7.7l.1.32h-.34c-3.61.1-7.21.08-10.82.12v-.75h.36v.75c-3.61,0-7.22,0-10.82-.12h-.35l.1-.32a32,32,0,0,0,1.53-7.7,26.05,26.05,0,0,1-1,7.84l-.24-.32c3.6-.11,7.21-.08,10.82-.12v.75H496v-.75c3.61,0,7.21,0,10.82.12l-.24.32A26.05,26.05,0,0,1,505.51,92.93Z"/><rect class="cls-1" x="504.65" y="17.89" width="1.85" height="1.85" transform="translate(39.81 216.36) rotate(-25.11)"/><rect class="cls-1" x="508.62" y="20.94" width="1.85" height="1.85" transform="translate(13.6 140.82) rotate(-15.94)"/><rect class="cls-1" x="485.81" y="87.82" width="1.85" height="1.85" transform="translate(965.13 -37.49) rotate(154.89)"/><rect class="cls-1" x="481.84" y="84.77" width="1.85" height="1.85" transform="translate(970.5 35.47) rotate(164.06)"/><rect class="cls-1" x="504.65" y="87.82" width="1.85" height="1.85" transform="translate(85.46 -206.19) rotate(25.11)"/><rect class="cls-1" x="508.62" y="84.77" width="1.85" height="1.85" transform="translate(43.14 -136.68) rotate(15.94)"/><path class="cls-3" d="M487.28,51.92l-5.59-7a1,1,0,0,0-1.86.65V60.73a1,1,0,0,0,1.79.63l5.66-7.12A1.86,1.86,0,0,0,487.28,51.92Z"/><path class="cls-3" d="M504.66,51.92l5.59-7a1,1,0,0,1,1.86.65V60.73a1,1,0,0,1-1.79.63l-5.66-7.12A1.86,1.86,0,0,1,504.66,51.92Z"/><polygon class="cls-4" points="504.3 99.61 496.36 107.33 488.41 99.61 496.36 91.9 504.3 99.61"/><polygon class="cls-4" points="504.3 9.11 496.36 16.82 488.41 9.11 496.36 1.39 504.3 9.11"/><path class="cls-4" d="M496.18,17.28l28.32,22V69.11l-28.32,22-28.31-22V39.28Z"/><line class="cls-5" x1="43.5" y1="3.94" x2="482.5" y2="3.94"/><line class="cls-5" x1="43.5" y1="104.11" x2="482.5" y2="104.11"/><line class="cls-5" x1="509.5" y1="103.95" x2="519" y2="103.95"/><line class="cls-5" x1="509.76" y1="3.95" x2="519.26" y2="3.95"/><line class="cls-5" x1="5.5" y1="103.95" x2="15" y2="103.95"/><line class="cls-5" x1="5.76" y1="3.95" x2="15.26" y2="3.95"/></g></g></svg>