<svg xmlns="http://www.w3.org/2000/svg" viewBox="0 0 44.97 82.69"><defs><style>.cls-1{fill:#fdc664;stroke:#fff;stroke-width:3px;}.cls-2{fill:#fff;}</style></defs><title>logo_sais</title><g id="Calque_2" data-name="Calque 2"><g id="Calque_1-2" data-name="Calque 1"><polygon class="cls-1" points="28.5 74.88 22.61 80.6 16.73 74.88 22.61 69.17 28.5 74.88"/><polygon class="cls-1" points="28.5 7.81 22.61 13.52 16.73 7.81 22.61 2.09 28.5 7.81"/><path class="cls-1" d="M22.48,13.86l21,16.31v22.1l-21,16.31L1.5,52.27V30.17Z"/><path class="cls-2" d="M28.45,57.88c-.34-5.77-.44-11.53-.37-17.3.07-2.88.23-5.76.25-8.65,0-.72,0-1.44,0-2.16v-.4s0,0,0,0-.22,0-.38,0H26.87c-1.45,0-2.89.07-4.33.1l-4.32.12-2.16,0h-.82c-.07,0-.26,0-.05,0a.29.29,0,0,0,.13-.14s0-.06,0-.09v.87c0,2.88.07,5.76.06,8.64l0,2.17v1.35c0,.2,0-.08-.12-.15a.38.38,0,0,0-.17-.06h.4l4.33.09q4.32.12,8.64.34v.1q-4.32.24-8.64.34l-4.33.1h-.4a.69.69,0,0,1-.43-.13.72.72,0,0,1-.26-.4.64.64,0,0,1,0-.24V41l0-2.17c0-2.88,0-5.76.07-8.64v-.89a.59.59,0,0,1,0-.23.66.66,0,0,1,.31-.33.78.78,0,0,1,.47-.07h.82l2.16.05,4.32.12c1.44,0,2.88.1,4.33.1h1.35a.4.4,0,0,1,.37.14.43.43,0,0,1,.07.23v.4c0,.72,0,1.44,0,2.16,0,2.89.18,5.77.24,8.65.08,5.77,0,11.53-.36,17.3Z"/><path class="cls-2" d="M23.93,45a1.69,1.69,0,0,1,.36,1.36A5.54,5.54,0,0,0,24,47a1.27,1.27,0,0,0,.11.68,3.26,3.26,0,0,1,.26,1.36,2.7,2.7,0,0,1-.48,1.36h-.1a2.82,2.82,0,0,1-.49-1.36,3.43,3.43,0,0,1,.26-1.36,1.39,1.39,0,0,0,.12-.68,5.6,5.6,0,0,0-.26-.68A1.7,1.7,0,0,1,23.83,45Z"/><path class="cls-2" d="M21,45.05a1.7,1.7,0,0,1,.37,1.36,5.6,5.6,0,0,0-.26.68,1.39,1.39,0,0,0,.12.68,3.25,3.25,0,0,1,.25,1.36A2.7,2.7,0,0,1,21,50.49h-.1a2.7,2.7,0,0,1-.48-1.36,3.26,3.26,0,0,1,.26-1.36,1.27,1.27,0,0,0,.11-.68,5.54,5.54,0,0,0-.25-.68,1.69,1.69,0,0,1,.36-1.36Z"/><path class="cls-2" d="M17.87,44.94a1.68,1.68,0,0,1,.37,1.36c-.06.23-.22.46-.26.68a1.35,1.35,0,0,0,.12.68A3.49,3.49,0,0,1,18.36,49a2.75,2.75,0,0,1-.49,1.36h-.1A2.73,2.73,0,0,1,17.29,49a3.32,3.32,0,0,1,.26-1.36,1.24,1.24,0,0,0,.11-.68,7.08,7.08,0,0,0-.25-.68,1.71,1.71,0,0,1,.36-1.36Z"/></g></g></svg>