<svg xmlns="http://www.w3.org/2000/svg" viewBox="0 0 44.97 82.69"><defs><style>.cls-1{fill:#607d68;stroke-width:3px;}.cls-1,.cls-2{stroke:#fff;}.cls-2{fill:none;stroke-miterlimit:10;stroke-width:0.75px;}</style></defs><title>logo_explorateur</title><g id="Calque_2" data-name="Calque 2"><g id="Calque_1-2" data-name="Calque 1"><polygon class="cls-1" points="28.5 74.88 22.61 80.6 16.73 74.88 22.61 69.17 28.5 74.88"/><polygon class="cls-1" points="28.5 7.81 22.61 13.52 16.73 7.81 22.61 2.09 28.5 7.81"/><path class="cls-1" d="M22.48,13.86l21,16.31v22.1l-21,16.31L1.5,52.27V30.17Z"/><polygon class="cls-2" points="23.73 38.86 20.42 39.81 20.51 42.97 23.51 42.06 23.73 38.86"/><line class="cls-2" x1="13.21" y1="52.7" x2="31.73" y2="27.81"/><line class="cls-2" x1="24.92" y1="33.11" x2="28.71" y2="35.93"/><line class="cls-2" x1="25.39" y1="32.48" x2="29.18" y2="35.3"/><line class="cls-2" x1="25.86" y1="31.85" x2="29.65" y2="34.67"/><line class="cls-2" x1="15.07" y1="46.36" x2="18.86" y2="49.18"/><line class="cls-2" x1="15.49" y1="45.8" x2="19.28" y2="48.62"/><line class="cls-2" x1="15.9" y1="45.24" x2="19.69" y2="48.06"/><polyline class="cls-2" points="13.99 48.4 12.82 53.14 17.15 50.75"/><polyline class="cls-2" points="30.61 32.56 31.72 27.81 27.43 30.26"/></g></g></svg>