<svg xmlns="http://www.w3.org/2000/svg" xmlns:xlink="http://www.w3.org/1999/xlink" viewBox="0 0 137 176"><defs><style>.cls-1,.cls-2{fill:none;}.cls-2{stroke:#fff;stroke-miterlimit:10;stroke-width:4px;}.cls-3{clip-path:url(#clip-path);}</style><clipPath id="clip-path" transform="translate(0 0)"><rect class="cls-1" width="137" height="293.42"/></clipPath></defs><title>objets_trouves_icones</title><g id="Calque_2" data-name="Calque 2"><g id="Calque_1-2" data-name="Calque 1"><line class="cls-2" x1="80.02" y1="56.73" x2="80.02" y2="173.97"/><polyline class="cls-2" points="87.78 98.71 109.56 98.84 109.56 33"/><g class="cls-3"><polyline class="cls-2" points="80.02 128.1 116.68 128.21 129.29 101 128.31 54.9"/></g><polyline class="cls-2" points="20.02 42.03 81.88 42.03 81.88 8.72"/><line class="cls-2" x1="38.67" y1="42.03" x2="38.67" y2="26.98"/><line class="cls-2" x1="65.66" y1="42.03" x2="65.56" y2="56.25"/><line class="cls-2" x1="14.53" y1="115.71" x2="44.1" y2="115.71"/><polyline class="cls-2" points="29.58 100.8 51.37 100.65 51.37 174"/><line class="cls-2" x1="35.53" y1="152.71" x2="65.1" y2="152.71"/><g class="cls-3"><polyline class="cls-2" points="2.83 71.46 59.58 71.46 59.58 79.12"/></g><line class="cls-2" x1="21.48" y1="71.46" x2="21.48" y2="86.51"/><line class="cls-2" x1="44.7" y1="71.46" x2="44.61" y2="57.24"/><g class="cls-3"><path class="cls-2" d="M70,174H41.87S27.86,144.7,7,99.47,38.05,26.21,38.05,26.21V2H70" transform="translate(0 0)"/><path class="cls-2" d="M67,174H95.13s14-29.3,34.91-74.53S99,26.21,99,26.21V2H67" transform="translate(0 0)"/><polyline class="cls-2" points="106.69 150 89.87 150.02 89.87 137.82"/><polyline class="cls-2" points="109.69 45 92.87 45.02 92.87 32.82"/><line class="cls-2" x1="63.9" y1="1.14" x2="63.9" y2="16.2"/></g></g></g></svg>