<svg xmlns="http://www.w3.org/2000/svg" viewBox="0 0 153.3 153.3"><defs><style>.cls-1{fill:none;stroke:#fff;stroke-miterlimit:10;stroke-width:4px;}</style></defs><title>zones_explorees_icone</title><g id="Calque_2" data-name="Calque 2"><g id="Calque_1-2" data-name="Calque 1"><line class="cls-1" x1="73.44" y1="33.73" x2="73.44" y2="150.97"/><polyline class="cls-1" points="81.2 75.69 102.99 75.84 102.99 2.49"/><polyline class="cls-1" points="73.44 105.1 121.73 105.25 121.73 31.9"/><polyline class="cls-1" points="101.13 23.39 84.31 23.41 84.31 11.21"/><rect class="cls-1" x="2" y="2" width="149.3" height="149.3"/><line class="cls-1" x1="121.73" y1="67.08" x2="151.3" y2="67.08"/><polyline class="cls-1" points="73.44 128.03 135.3 128.03 135.3 94.72"/><line class="cls-1" x1="92.09" y1="128.03" x2="92.09" y2="112.98"/><line class="cls-1" x1="119.08" y1="128.03" x2="118.98" y2="142.25"/><polyline class="cls-1" points="11.01 79.8 32.79 79.65 32.79 153"/><polyline class="cls-1" points="3.25 50.39 51.53 50.24 51.53 123.59"/><line class="cls-1" x1="16.96" y1="131.71" x2="46.53" y2="131.71"/><polyline class="cls-1" points="3.25 27.46 60.01 27.46 60.01 35.12"/><line class="cls-1" x1="21.9" y1="27.46" x2="21.9" y2="42.51"/><line class="cls-1" x1="36.44" y1="50.73" x2="36.44" y2="65.78"/><line class="cls-1" x1="45.13" y1="27.46" x2="45.03" y2="13.24"/></g></g></svg>